<?xml version="1.0" encoding="UTF-8" standalone="no"?>
<svg width="93px" height="93px" viewBox="0 0 93 93" version="1.1" xmlns="http://www.w3.org/2000/svg" xmlns:xlink="http://www.w3.org/1999/xlink" xmlns:sketch="http://www.bohemiancoding.com/sketch/ns">
    <!-- Generator: Sketch 3.4.4 (17249) - http://www.bohemiancoding.com/sketch -->
    <title>Slice 1</title>
    <desc>Created with Sketch.</desc>
    <defs>
        <linearGradient x1="83.1892758%" y1="15.9808127%" x2="65.4415412%" y2="33.8568725%" id="linearGradient-1">
            <stop stop-color="#E1E1E1" offset="0%"></stop>
            <stop stop-color="#F3F3EE" offset="100%"></stop>
        </linearGradient>
        <linearGradient x1="2.47643998%" y1="50.5868361%" x2="27.6662666%" y2="50.4960964%" id="linearGradient-2">
            <stop stop-color="#E1E1E1" offset="0%"></stop>
            <stop stop-color="#F3F3EE" offset="100%"></stop>
        </linearGradient>
        <linearGradient x1="62.8668426%" y1="95.7523496%" x2="56.2595879%" y2="71.4443307%" id="linearGradient-3">
            <stop stop-color="#E1E1E1" offset="0%"></stop>
            <stop stop-color="#F3F3EE" offset="100%"></stop>
        </linearGradient>
    </defs>
    <g id="Page-1" stroke="none" stroke-width="1" fill="none" fill-rule="evenodd" sketch:type="MSPage">
        <g id="bladesOuter" sketch:type="MSLayerGroup" transform="translate(1.000000, -1.000000)" stroke="#ABB5A1" stroke-width="0.5">
            <g id="blades" transform="translate(0.870080, 0.032221)" sketch:type="MSShapeGroup">
                <path d="M58.9633334,53.0612425 C63.0632877,57.7841175 88.8011964,90.4187923 76.4777602,76.120274 C73.7491483,73.0873544 63.8407072,62.2311519 56.8923037,54.4755301 C52.4437111,48.2149011 50.0923161,45.9026262 50.0923161,45.9026262 C50.0923161,45.9026262 50.0117988,45.2745321 50.2074955,44.9602485 C50.4031921,44.6455181 50.8086841,44.5717736 50.8086841,44.5717736 C55.4136597,49.6718701 54.8633801,48.464105 58.9633334,53.0612425 Z" id="path55757" fill="url(#linearGradient-1)" transform="translate(64.932734, 62.144251) rotate(-16.000000) translate(-64.932734, -62.144251) "></path>
                <path d="M45.8751495,33.8648698 C45.8458993,27.5411665 45.7192173,-12.2073984 46.790479,5.35745199 C47.027674,9.26834877 47.7546692,23.721734 47.9696701,34.3046808 C47.2756198,42.174657 47.4314778,45.6455075 47.4314778,45.6455075 C47.4314778,45.6455075 47.124717,46.1649794 46.8252679,46.2433393 C46.5258188,46.3214911 46.233682,46.064001 46.233682,46.064001 C46.233682,38.906051 45.9044004,40.1901362 45.8751495,33.8648698 Z" id="path55757" fill="url(#linearGradient-2)" transform="translate(46.912412, 23.585959) rotate(5.000000) translate(-46.912412, -23.585959) "></path>
                <path d="M33.1632306,61.0370367 C26.935773,62.1088975 -12.2495068,67.5785919 4.88436619,64.5106332 C8.67808803,63.7609711 22.6707068,60.9203971 32.9581699,58.9442283 C40.8845251,58.2109366 44.2319986,57.4137217 44.2319986,57.4137217 C44.2319986,57.4137217 44.8494581,57.6191417 45.0324185,57.9006515 C45.2153788,58.1824908 45.0654865,58.519859 45.0654865,58.519859 C38.0180163,59.8174903 39.3906857,59.911765 33.1632306,61.0370367 Z" id="path55757" fill="url(#linearGradient-3)" transform="translate(22.853888, 61.423895) rotate(-22.000000) translate(-22.853888, -61.423895) "></path>
                <path d="M44.5,52 C46.9852814,52 49,49.9852814 49,47.5 C49,45.0147186 46.9852814,43 44.5,43 C42.0147186,43 40,45.0147186 40,47.5 C40,49.9852814 42.0147186,52 44.5,52 Z" id="Oval-2" fill="#EDEDED"></path>
            </g>
        </g>
    </g>
</svg>