<?xml version="1.0" encoding="UTF-8" standalone="no"?>
<svg viewBox="0 0 180 191" version="1.1" xmlns="http://www.w3.org/2000/svg" xmlns:xlink="http://www.w3.org/1999/xlink" xmlns:sketch="http://www.bohemiancoding.com/sketch/ns">
    <defs><linearGradient x1="86.379%" y1="50%" x2="20.657%" y2="50%" id="linearGradient-1"><stop stop-color="#D3D7CF" offset="0%" /><stop stop-color="#FFF" offset="100%" /></linearGradient><linearGradient x1="-1.227%" y1="50%" x2="101.227%" y2="50%" id="linearGradient-2"><stop stop-color="#ABB5A1" offset="0%" /><stop stop-color="#FFF" offset="100%" /></linearGradient><linearGradient x1="50%" y1="39.791%" x2="59.881%" y2="67.712%" id="linearGradient-3"><stop stop-color="#F8F8F8" offset="0%" /><stop stop-color="#DFE2DD" offset="100%" /></linearGradient><linearGradient x1="56.269%" y1="12.413%" x2="92.218%" y2="79.574%" id="linearGradient-4"><stop stop-color="#F7F7F7" offset="0%" /><stop stop-color="#DFE2DD" offset="100%" /></linearGradient><linearGradient x1="2.476%" y1="50.587%" x2="27.666%" y2="50.496%" id="linearGradient-5"><stop stop-color="#E1E1E1" offset="0%" /><stop stop-color="#F3F3EE" offset="100%" /></linearGradient><radialGradient fx="50%" fy="50%" r="38.282%" id="radialGradient-6"><stop stop-color="#ABB5A1" offset="0%" /><stop stop-color="#ABB5A1" stop-opacity="0" offset="100%" /></radialGradient><radialGradient cx="22.979%" cy="60.277%" fx="22.979%" fy="60.277%" r="100%" id="radialGradient-7"><stop stop-color="#F9F5F5" offset="0%" /><stop stop-color="#E0E3DD" offset="100%" /></radialGradient><linearGradient x1="-3.387%" y1="50%" x2="103.387%" y2="50%" id="linearGradient-8"><stop stop-color="#E1E1E1" offset="0%" /><stop stop-color="#FFF" offset="100%" /></linearGradient><linearGradient x1="97.524%" y1="49.087%" x2="72.334%" y2="49.178%" id="linearGradient-9"><stop stop-color="#E1E1E1" offset="0%" /><stop stop-color="#F3F3EE" offset="100%" /></linearGradient><radialGradient fx="50%" fy="50%" r="55.714%" id="radialGradient-10"><stop stop-color="#ABB5A1" offset="0%" /><stop stop-color="#ABB5A1" stop-opacity="0" offset="100%" /></radialGradient></defs>
    <g id="Page-1" fill="none" fill-rule="evenodd">
        <g id="Farm-land">
            <path d="M177.93 145l-84.965 46L8 145l84.965-46 84.966 46z" id="Rectangle-16-1" fill="#9DA65D" />
            <path d="M177.93 132l-84.965 46L8 132l84.965-46 84.966 46z" id="Rectangle-16-14" fill="#B6C06B" />
            <path d="M177.93 119l-84.965 46L8 119l84.965-46 84.966 46z" id="Rectangle-16-2" fill="#B8C747" />
            <path d="M8 132.005v13l84.96 46V177.99L8 132.005z" id="Path-152" fill="#D4D5C8" />
            <path d="M8 119.005v13l84.96 46V164.99L8 119.005z" id="Path-152" fill="#89904C" />
            <path d="M177.96 132v13L93 191v-13.016L177.96 132z" id="Path-152" fill="#D4D5C8" />
            <path d="M177.96 119v13L93 178v-13.016L177.96 119z" id="Path-152" fill="#737940" />
            <g id="Wind-turbine">
                <path id="turbine-shadow" d="M53.512 123.504l39.212 4.345L72.794 114l22.743 13.41 30.865 1.374-30.865.875-8 17.87 5.812-17.87L52 127.85l1.512-4.346z" data-path-reset="M53.512 123.504l39.212 4.345L72.794 114l22.743 13.41 30.865 1.374-30.865.875-8 17.87 5.812-17.87L52 127.85l1.512-4.346z" data-path-off="m 53.512,123.504 39.212,4.345 1.244253,-0.11435 1.568747,-0.32465 30.865,1.374 -30.865,0.875 -1.204209,0.0579 L 93.349,129.659 52,127.85 Z" fill="#89904C" />
                <g id="Foundation">
                    <g id="Rectangle-16-+-Path-152-+-Path-152">
                        <path d="M55.988 123.81l-14.994 7.813L26 123.81 40.994 116l14.994 7.81z" id="Rectangle-16-16" fill="#FFF" />
                        <path d="M26 123.812v2.208l14.993 7.81v-2.21L26 123.813z" id="Path-152" fill="#E4E5DB" />
                        <path d="M55.993 123.81v2.21L41 133.83v-2.21l14.993-7.81z" id="Path-152" fill="#D4D5C8" />
                    </g>
                    <path d="M42.897 126.733l9.52-1.055 3.5-1.843-1.843-1.032-9.93.253-1.247 3.677z" id="Path-608" fill="#D4D5C8" />
                </g>
                <g id="Base" transform="translate(0.000000, 6.000000) translate(35.254855, 95.984448)" stroke="#ABB5A1">
                    <path d="M.074 1.194h9.774v21.57c-1.627 2.308-3.424 2.81-5.07 2.81-1.61 0-3.142-.498-4.704-2.81V1.195z" id="Rectangle-158" fill="#E6E6E6" />
                    <ellipse id="Oval-2" fill="#EFECEC" cx="4.956" cy="1.091" rx="4.817" ry="1.091" />
                </g>
                <path d="M44.144 97.144s-1.89.628-3.78.628-3.782-.628-3.782-.628l1.686-49.628H42.46l1.686 49.628z" id="Tower" stroke="#ABB5A1" fill="url(#linearGradient-1)" transform="translate(0.000000, 6.000000)" />
                <path d="M37.69 45.458h5.425v2.374s-3.6 1.137-5.424 0v-2.374z" id="collar" stroke="#ABB5A1" fill="url(#linearGradient-2)" transform="translate(0.000000, 6.000000) translate(40.403165, 46.898021) scale(-1, 1) translate(-40.403165, -46.898021)" />
                <g id="Housing">
                    <path d="M40.23 49.033s2.376-.882 2.536-.932c.616-.177 2.092-.35 2.454.05.362.402.155 1.133.155 1.133s-3.696 1.11-3.8 1.11c-.103 0-1.344-1.36-1.344-1.36z" id="Path-536" stroke="#ABB5A1" fill="#F8E81C" />
                    <path d="M4.657 1.54S7.545.44 7.674.44c.934 0 1.968.775 2.283 1.41C10.31 1.78 13.1.585 13.802.29c.48.454.632.577.48 1.25 0 .214-4.166 1.53-3.972 2.523.222 1.142-.5 2.298-.5 2.298l-1.044.522s-.077-2.386-.87-3.63c-.792-1.243-3.24-1.71-3.24-1.71z" id="Path-399" stroke="#ABB5A1" fill="url(#linearGradient-3)" transform="translate(0.000000, 6.000000) translate(31.440796, 41.895325)" />
                    <path d="M35.315 57.573c1.498 0 3.283-.798 2.945-3.7-.34-2.9-1.79-3.508-3.773-3.508-1.984 0-2.722 1.378-2.99 2.822-.388 2.073 1.304 4.387 3.818 4.386z" id="Oval-30" stroke="#D8DBD4" fill="#D8D8D8" />
                    <path d="M4.866 1.46c2.816-.29 4.798 2.302 4.002 5.276-.21.78-3.243 2.5-3.104 2.304C8.22 5.55 4.01 1.46 1.134 3.345c-.254.165-.328 0-.328 0C2.02 2.212 4.61 1.485 4.866 1.46z" id="Path-535" stroke="#ABB5A1" fill="url(#linearGradient-4)" transform="translate(0.000000, 6.000000) translate(31.440796, 41.895325)" />
                </g>
                <g id="Propellor" style="display: none;">
                    <g id="path55757-+-path55759">
                        <path d="M.555 30.81c0-4.877-.384-4.005-.418-8.32C.103 18.172-.045-8.973 1.205 3.135 1.482 5.816 2.33 15.67 2.58 22.84c-.81 5.322-.627 7.675-.627 7.675s-.358.355-.707.41c-.35.057-.69-.116-.69-.116z" id="path55757" stroke="#ABB5A1" fill="url(#linearGradient-5)" transform="translate(0.000000, 6.000000) translate(2.000000, 4.000000) translate(15.933114, 46.626796) rotate(263.000000) translate(-15.933114, -46.626796) translate(14.433114, 31.126796)" />
                        <path d="M.437 18.423c.17 5.92.73 10.692 1.253 10.657.522-.035.808-4.862.64-10.783-.17-5.92-.732-10.69-1.254-10.656-.523.036-.81 4.863-.64 10.783z" id="path55759" opacity=".5" fill="url(#radialGradient-6)" transform="translate(0.000000, 6.000000) translate(2.000000, 4.000000) translate(15.933114, 46.626796) rotate(263.000000) translate(-15.933114, -46.626796) translate(14.433114, 31.126796)" />
                    </g>
                    <path d="M32.91 47.88c1.705 0 3.055-.165 3.055-2.725 0-3.457-2.058-4.636-4.404-4.636-1.372 0-3.237 2.075-3.237 4.635 0 2.56 2.88 2.724 4.586 2.724z" id="Oval-1" stroke="#ABB5A1" fill="url(#radialGradient-7)" transform="translate(0.000000, 6.000000) translate(2.000000, 4.000000)" />
                    <g id="g55749" stroke="#ABB5A1">
                        <path d="M2.638 1.084c-.028.335-.617.56-1.317.504C.62 1.53.077 1.213.106.878.132.54.722.315 1.422.372c.7.057 1.245.375 1.216.71z" id="path55751" fill="url(#linearGradient-8)" transform="translate(0.000000, 6.000000) translate(2.000000, 4.000000) translate(34.255798, 45.855649) scale(-1, 1) rotate(-145.000000) translate(-34.255798, -45.855649) translate(32.755798, 44.855649)" />
                        <path d="M37.358 55.396c-.215-.26-.828-.106-1.37.342-.54.45-.803 1.022-.587 1.28.216.26.83.106 1.37-.342.54-.45.803-1.022.588-1.28z" id="path55753" fill="#EEEEEC" />
                    </g>
                    <g id="g55739">
                        <path d="M2.01.098c0 6.726.468 5.426.503 11.38.034 5.952.182 43.393-1.07 26.692C1.17 34.472.32 20.88.07 10.992.878 3.652.61.407.61.407l1.4-.31z" id="path55741" stroke="#ABB5A1" fill="url(#linearGradient-9)" transform="translate(0.000000, 6.000000) translate(2.000000, 4.000000) translate(49.908651, 61.067001) scale(-1, 1) rotate(46.000000) translate(-49.908651, -61.067001) translate(48.408651, 39.567001)" />
                        <path d="M1.75 17.117c.13 8.156-.143 14.807-.613 14.855-.47.047-.957-6.525-1.088-14.68C-.084 9.134.19 2.483.66 2.435c.47-.048.958 6.525 1.09 14.68z" id="path55743" opacity=".5" fill="url(#radialGradient-10)" transform="translate(0.000000, 6.000000) translate(2.000000, 4.000000) translate(49.908651, 61.067001) scale(-1, 1) rotate(46.000000) translate(-49.908651, -61.067001) translate(48.408651, 39.567001)" />
                    </g>
                    <g id="g55749" stroke="#ABB5A1">
                        <path d="M2.638.47C2.61.617 2.02.715 1.32.69.62.665.077.527.106.38.132.236.722.138 1.422.163c.7.025 1.245.163 1.216.31z" id="path55751" fill="url(#linearGradient-8)" transform="translate(0.000000, 6.000000) translate(2.000000, 4.000000) translate(31.810970, 41.006939) scale(-1, 1) rotate(-2.000000) translate(-31.810970, -41.006939) translate(30.310970, 40.506939)" />
                        <path d="M32.652 50.79c.022.146.608.265 1.308.265.7 0 1.25-.12 1.226-.266-.022-.148-.608-.267-1.31-.266-.7 0-1.248.12-1.224.266z" id="path55753" fill="#EEEEEC" /></g><g id="path55757-+-path55759"><path d="M.452 40.844c0-6.473-.385-5.315-.42-11.044C0 24.072-.147-11.957 1.103 4.114c.276 3.56 1.125 16.637 1.376 26.153-.81 7.063-.628 10.186-.628 10.186s-.358.47-.708.545c-.35.075-.69-.154-.69-.154z" id="path55757" stroke="#ABB5A1" fill="url(#linearGradient-5)" transform="translate(0.000000, 6.000000) translate(2.000000, 4.000000) translate(30.862432, 0.022314)" /><path d="M.333 24.404c.17 7.858.73 14.19 1.253 14.144.523-.046.81-6.453.64-14.31-.17-7.86-.73-14.19-1.254-14.145-.522.046-.808 6.454-.64 14.31z" id="path55759" opacity=".5" fill="url(#radialGradient-6)" transform="translate(0.000000, 6.000000) translate(2.000000, 4.000000) translate(30.862432, 0.022314)" /></g></g></g><g id="Wind-turbine"><path d="M148.512 118.504l25.338 2.913-4.358 2.072-22.492-.64 1.512-4.346z" id="Path-695" fill="#89904C" /><g id="Foundation"><g id="Rectangle-16-+-Path-152-+-Path-152"><path d="M156.988 117.81l-14.994 7.813L127 117.81l14.994-7.81 14.994 7.81z" id="Rectangle-16-4" fill="#FFF" /><path d="M127 117.812v2.208l14.993 7.81v-2.21L127 117.813z" id="Path-152" fill="#E4E5DB" /><path d="M156.993 117.81v2.21L142 127.83v-2.21l14.993-7.81z" id="Path-152" fill="#D4D5C8" /></g><path d="M143.897 120.733l9.52-1.055 3.5-1.843-1.843-1.032-9.93.253-1.247 3.677z" id="Path-608" fill="#D4D5C8" /></g><g id="Base" transform="translate(101.000000, 0.000000) translate(35.254855, 95.984448)" stroke="#ABB5A1"><path d="M.074 1.194h9.774v21.57c-1.627 2.308-3.424 2.81-5.07 2.81-1.61 0-3.142-.498-4.704-2.81V1.195z" id="Rectangle-158" fill="#E6E6E6" /><ellipse id="Oval-2" fill="#EFECEC" cx="4.956" cy="1.091" rx="4.817" ry="1.091" /></g><path d="M44.144 97.144s-1.89.628-3.78.628-3.782-.628-3.782-.628l1.686-49.628H42.46l1.686 49.628z" id="Tower" stroke="#ABB5A1" fill="url(#linearGradient-1)" transform="translate(101.000000, 0.000000)" /><path d="M37.69 45.458h5.425v2.374s-3.6 1.137-5.424 0v-2.374z" id="collar" stroke="#ABB5A1" fill="url(#linearGradient-2)" transform="translate(101.000000, 0.000000) translate(40.403165, 46.898021) scale(-1, 1) translate(-40.403165, -46.898021)" /><g id="Housing"><path d="M141.23 43.033s2.376-.882 2.536-.932c.616-.177 2.092-.35 2.454.05.362.402.155 1.133.155 1.133s-3.696 1.11-3.8 1.11c-.103 0-1.344-1.36-1.344-1.36z" id="Path-536" stroke="#ABB5A1" fill="#F8E81C" /><path d="M4.657 1.54S7.545.44 7.674.44c.934 0 1.968.775 2.283 1.41C10.31 1.78 13.1.585 13.802.29c.48.454.632.577.48 1.25 0 .214-4.166 1.53-3.972 2.523.222 1.142-.5 2.298-.5 2.298l-1.044.522s-.077-2.386-.87-3.63c-.792-1.243-3.24-1.71-3.24-1.71z" id="Path-399" stroke="#ABB5A1" fill="url(#linearGradient-3)" transform="translate(101.000000, 0.000000) translate(31.440796, 41.895325)" /><path d="M136.315 51.573c1.498 0 3.283-.798 2.945-3.7-.34-2.9-1.79-3.508-3.773-3.508-1.984 0-2.722 1.378-2.99 2.822-.388 2.073 1.304 4.387 3.818 4.386z" id="Oval-30" stroke="#D8DBD4" fill="#D8D8D8" /><path d="M4.866 1.46c2.816-.29 4.798 2.302 4.002 5.276-.21.78-3.243 2.5-3.104 2.304C8.22 5.55 4.01 1.46 1.134 3.345c-.254.165-.328 0-.328 0C2.02 2.212 4.61 1.485 4.866 1.46z" id="Path-535" stroke="#ABB5A1" fill="url(#linearGradient-4)" transform="translate(101.000000, 0.000000) translate(31.440796, 41.895325)" /></g><g id="Propellor" style="display: none;"><g id="path55757-+-path55759"><path d="M.555 30.81c0-4.877-.384-4.005-.418-8.32C.103 18.172-.045-8.973 1.205 3.135 1.482 5.816 2.33 15.67 2.58 22.84c-.81 5.322-.627 7.675-.627 7.675s-.358.355-.707.41c-.35.057-.69-.116-.69-.116z" id="path55757" stroke="#ABB5A1" fill="url(#linearGradient-5)" transform="translate(101.000000, 0.000000) translate(2.000000, 4.000000) translate(15.933114, 46.626796) rotate(263.000000) translate(-15.933114, -46.626796) translate(14.433114, 31.126796)" /><path d="M.437 18.423c.17 5.92.73 10.692 1.253 10.657.522-.035.808-4.862.64-10.783-.17-5.92-.732-10.69-1.254-10.656-.523.036-.81 4.863-.64 10.783z" id="path55759" opacity=".5" fill="url(#radialGradient-6)" transform="translate(101.000000, 0.000000) translate(2.000000, 4.000000) translate(15.933114, 46.626796) rotate(263.000000) translate(-15.933114, -46.626796) translate(14.433114, 31.126796)" /></g><path d="M32.91 47.88c1.705 0 3.055-.165 3.055-2.725 0-3.457-2.058-4.636-4.404-4.636-1.372 0-3.237 2.075-3.237 4.635 0 2.56 2.88 2.724 4.586 2.724z" id="Oval-1" stroke="#ABB5A1" fill="url(#radialGradient-7)" transform="translate(101.000000, 0.000000) translate(2.000000, 4.000000)" /><g id="g55749" stroke="#ABB5A1"><path d="M2.638 1.084c-.028.335-.617.56-1.317.504C.62 1.53.077 1.213.106.878.132.54.722.315 1.422.372c.7.057 1.245.375 1.216.71z" id="path55751" fill="url(#linearGradient-8)" transform="translate(101.000000, 0.000000) translate(2.000000, 4.000000) translate(34.255798, 45.855649) scale(-1, 1) rotate(-145.000000) translate(-34.255798, -45.855649) translate(32.755798, 44.855649)" /><path d="M138.358 49.396c-.215-.26-.828-.106-1.37.342-.54.45-.803 1.022-.587 1.28.216.26.83.106 1.37-.342.54-.45.803-1.022.588-1.28z" id="path55753" fill="#EEEEEC" /></g><g id="g55739"><path d="M2.01.098c0 6.726.468 5.426.503 11.38.034 5.952.182 43.393-1.07 26.692C1.17 34.472.32 20.88.07 10.992.878 3.652.61.407.61.407l1.4-.31z" id="path55741" stroke="#ABB5A1" fill="url(#linearGradient-9)" transform="translate(101.000000, 0.000000) translate(2.000000, 4.000000) translate(49.908651, 61.067001) scale(-1, 1) rotate(46.000000) translate(-49.908651, -61.067001) translate(48.408651, 39.567001)" /><path d="M1.75 17.117c.13 8.156-.143 14.807-.613 14.855-.47.047-.957-6.525-1.088-14.68C-.084 9.134.19 2.483.66 2.435c.47-.048.958 6.525 1.09 14.68z" id="path55743" opacity=".5" fill="url(#radialGradient-10)" transform="translate(101.000000, 0.000000) translate(2.000000, 4.000000) translate(49.908651, 61.067001) scale(-1, 1) rotate(46.000000) translate(-49.908651, -61.067001) translate(48.408651, 39.567001)" /></g><g id="g55749" stroke="#ABB5A1"><path d="M2.638.47C2.61.617 2.02.715 1.32.69.62.665.077.527.106.38.132.236.722.138 1.422.163c.7.025 1.245.163 1.216.31z" id="path55751" fill="url(#linearGradient-8)" transform="translate(101.000000, 0.000000) translate(2.000000, 4.000000) translate(31.810970, 41.006939) scale(-1, 1) rotate(-2.000000) translate(-31.810970, -41.006939) translate(30.310970, 40.506939)" /><path d="M133.652 44.79c.022.146.608.265 1.308.265.7 0 1.25-.12 1.226-.266-.022-.148-.608-.267-1.31-.266-.7 0-1.248.12-1.224.266z" id="path55753" fill="#EEEEEC" /></g><g id="path55757-+-path55759"><path d="M.452 40.844c0-6.473-.385-5.315-.42-11.044C0 24.072-.147-11.957 1.103 4.114c.276 3.56 1.125 16.637 1.376 26.153-.81 7.063-.628 10.186-.628 10.186s-.358.47-.708.545c-.35.075-.69-.154-.69-.154z" id="path55757" stroke="#ABB5A1" fill="url(#linearGradient-5)" transform="translate(101.000000, 0.000000) translate(2.000000, 4.000000) translate(30.862432, 0.022314)" /><path d="M.333 24.404c.17 7.858.73 14.19 1.253 14.144.523-.046.81-6.453.64-14.31-.17-7.86-.73-14.19-1.254-14.145-.522.046-.808 6.454-.64 14.31z" id="path55759" opacity=".5" fill="url(#radialGradient-6)" transform="translate(101.000000, 0.000000) translate(2.000000, 4.000000) translate(30.862432, 0.022314)" /></g></g></g></g></g>
</svg>
